<?xml version="1.0" encoding="iso-8859-1"?>
<!-- Generator: Adobe Illustrator 19.0.0, SVG Export Plug-In . SVG Version: 6.00 Build 0)  -->
<svg version="1.1" id="Layer_1" xmlns="http://www.w3.org/2000/svg" xmlns:xlink="http://www.w3.org/1999/xlink" x="0px" y="0px"
	 viewBox="0 0 512 512" style="enable-background:new 0 0 512 512;" xml:space="preserve">
<path style="fill:#CFDFE2;" d="M326.063,61.979v86.232c0,11.906-9.651,21.558-21.558,21.558h-97.011
	c-11.906,0-21.558-9.651-21.558-21.558V61.979c0-11.906,9.651-21.558,21.558-21.558V18.863c0-5.953,4.826-10.779,10.779-10.779
	h32.337c5.953,0,10.779,4.826,10.779,10.779v21.558h43.116C316.412,40.421,326.063,50.073,326.063,61.979z M304.505,374.568h-43.116
	V353.01c0-5.953-4.826-10.779-10.779-10.779h-32.337c-5.953,0-10.779,4.826-10.779,10.779v21.558
	c-11.906,0-21.558,9.651-21.558,21.558v86.232c0,11.906,9.651,21.558,21.558,21.558h97.011c11.906,0,21.558-9.651,21.558-21.558
	v-86.232C326.063,384.22,316.412,374.568,304.505,374.568z M126.653,374.568H83.537V353.01c0-5.953-4.826-10.779-10.779-10.779
	H40.421c-5.953,0-10.779,4.826-10.779,10.779v21.558c-11.906,0-21.558,9.651-21.558,21.558v86.232
	c0,11.906,9.651,21.558,21.558,21.558h97.011c11.906,0,21.558-9.651,21.558-21.558v-86.232
	C148.211,384.22,138.559,374.568,126.653,374.568z M482.358,374.568h-43.116V353.01c0-5.953-4.826-10.779-10.779-10.779h-32.337
	c-5.953,0-10.779,4.826-10.779,10.779v21.558c-11.906,0-21.558,9.651-21.558,21.558v86.232c0,11.906,9.651,21.558,21.558,21.558
	h97.011c11.906,0,21.558-9.651,21.558-21.558v-86.232C503.916,384.22,494.264,374.568,482.358,374.568z"/>
<path style="fill:#84A7B7;" d="M261.389,18.863v21.558h-53.895V18.863c0-5.953,4.826-10.779,10.779-10.779h32.337
	C256.564,8.084,261.389,12.91,261.389,18.863z M250.611,342.232h-32.337c-5.953,0-10.779,4.826-10.779,10.779v21.558h53.895V353.01
	C261.389,347.057,256.564,342.232,250.611,342.232z M72.758,342.232H40.421c-5.953,0-10.779,4.826-10.779,10.779v21.558h53.895
	V353.01C83.537,347.057,78.711,342.232,72.758,342.232z M428.463,342.232h-32.337c-5.953,0-10.779,4.826-10.779,10.779v21.558
	h53.895V353.01C439.242,347.057,434.416,342.232,428.463,342.232z"/>
<path style="fill:#9ABCC1;" d="M226.358,118.568c0-4.465,3.62-8.084,8.084-8.084h43.116c4.465,0,8.084,3.62,8.084,8.084
	s-3.62,8.084-8.084,8.084h-43.116C229.977,126.653,226.358,123.033,226.358,118.568z M234.442,94.316h43.116
	c4.465,0,8.084-3.62,8.084-8.084s-3.62-8.084-8.084-8.084h-43.116c-4.465,0-8.084,3.62-8.084,8.084S229.977,94.316,234.442,94.316z
	 M420.379,406.905c0,4.465,3.62,8.084,8.084,8.084h43.116c4.465,0,8.084-3.62,8.084-8.084s-3.62-8.084-8.084-8.084h-43.116
	C423.999,398.821,420.379,402.441,420.379,406.905z M115.874,431.158H72.758c-4.465,0-8.084,3.62-8.084,8.084
	c0,4.465,3.62,8.084,8.084,8.084h43.116c4.465,0,8.084-3.62,8.084-8.084C123.958,434.777,120.338,431.158,115.874,431.158z
	 M293.726,398.821h-43.116c-4.465,0-8.084,3.62-8.084,8.084s3.62,8.084,8.084,8.084h43.116c4.465,0,8.084-3.62,8.084-8.084
	S298.191,398.821,293.726,398.821z M471.579,431.158h-43.116c-4.465,0-8.084,3.62-8.084,8.084c0,4.465,3.62,8.084,8.084,8.084
	h43.116c4.465,0,8.084-3.62,8.084-8.084C479.663,434.777,476.044,431.158,471.579,431.158z M293.726,431.158h-43.116
	c-4.465,0-8.084,3.62-8.084,8.084c0,4.465,3.62,8.084,8.084,8.084h43.116c4.465,0,8.084-3.62,8.084-8.084
	C301.811,434.777,298.191,431.158,293.726,431.158z M115.874,398.821H72.758c-4.465,0-8.084,3.62-8.084,8.084
	s3.62,8.084,8.084,8.084h43.116c4.465,0,8.084-3.62,8.084-8.084S120.338,398.821,115.874,398.821z M70.063,307.2v-43.116
	c0-7.43,6.044-13.474,13.474-13.474h164.379V307.2c0,4.465,3.62,8.084,8.084,8.084c4.465,0,8.084-3.62,8.084-8.084v-56.589h164.379
	c7.43,0,13.474,6.044,13.474,13.474V307.2c0,4.465,3.62,8.084,8.084,8.084s8.084-3.62,8.084-8.084v-43.116
	c0-16.345-13.297-29.642-29.642-29.642H264.084v-24.253c0-4.465-3.62-8.084-8.084-8.084c-4.465,0-8.084,3.62-8.084,8.084v24.253
	H83.537c-16.345,0-29.642,13.297-29.642,29.642V307.2c0,4.465,3.62,8.084,8.084,8.084S70.063,311.665,70.063,307.2z"/>
<path style="fill:#4C4C4C;" d="M482.358,366.484h-35.032V353.01c0-10.401-8.463-18.863-18.863-18.863h-32.337
	c-10.401,0-18.863,8.463-18.863,18.863v14.595c-12.428,3.527-21.558,14.978-21.558,28.521v86.232
	c0,16.345,13.297,29.642,29.642,29.642h97.011C498.703,512,512,498.703,512,482.358v-86.232
	C512,379.781,498.703,366.484,482.358,366.484z M393.432,353.01c0-1.485,1.209-2.695,2.695-2.695h32.337
	c1.485,0,2.695,1.209,2.695,2.695v13.474h-37.726V353.01z M495.832,482.358c0,7.43-6.044,13.474-13.474,13.474h-97.011
	c-7.43,0-13.474-6.044-13.474-13.474v-86.232c0-7.43,6.044-13.474,13.474-13.474h97.011c7.43,0,13.474,6.044,13.474,13.474V482.358z
	 M126.653,366.484H91.621V353.01c0-10.401-8.463-18.863-18.863-18.863H40.421c-10.401,0-18.863,8.463-18.863,18.863v14.595
	C9.13,371.132,0,382.583,0,396.126v86.232C0,498.703,13.297,512,29.642,512h97.011c16.345,0,29.642-13.297,29.642-29.642v-86.232
	C156.295,379.781,142.998,366.484,126.653,366.484z M37.726,353.01c0-1.485,1.209-2.695,2.695-2.695h32.337
	c1.485,0,2.695,1.209,2.695,2.695v13.474H37.726V353.01z M140.126,482.358c0,7.43-6.044,13.474-13.474,13.474H29.642
	c-7.43,0-13.474-6.044-13.474-13.474v-86.232c0-7.43,6.044-13.474,13.474-13.474h97.011c7.43,0,13.474,6.044,13.474,13.474V482.358z
	 M207.495,177.853h97.011c16.345,0,29.642-13.297,29.642-29.642V61.979c0-16.345-13.297-29.642-29.642-29.642h-35.032V18.863
	C269.474,8.463,261.011,0,250.611,0h-32.337c-10.401,0-18.863,8.463-18.863,18.863v14.595
	c-12.428,3.527-21.558,14.978-21.558,28.521v86.232C177.853,164.556,191.15,177.853,207.495,177.853z M215.579,18.863
	c0-1.485,1.209-2.695,2.695-2.695h32.337c1.485,0,2.695,1.209,2.695,2.695v13.474h-37.726V18.863z M194.021,61.979
	c0-7.43,6.044-13.474,13.474-13.474h97.011c7.43,0,13.474,6.044,13.474,13.474v86.232c0,7.43-6.044,13.474-13.474,13.474h-97.011
	c-7.43,0-13.474-6.044-13.474-13.474V61.979z M53.895,299.116V256c0-16.345,13.297-29.642,29.642-29.642h164.379v-24.253
	c0-4.465,3.62-8.084,8.084-8.084c4.465,0,8.084,3.62,8.084,8.084v24.253h164.379c16.345,0,29.642,13.297,29.642,29.642v43.116
	c0,4.465-3.62,8.084-8.084,8.084s-8.084-3.62-8.084-8.084V256c0-7.43-6.044-13.474-13.474-13.474H264.084v56.589
	c0,4.465-3.62,8.084-8.084,8.084c-4.465,0-8.084-3.62-8.084-8.084v-56.589H83.537c-7.43,0-13.474,6.044-13.474,13.474v43.116
	c0,4.465-3.62,8.084-8.084,8.084S53.895,303.58,53.895,299.116z M304.505,366.484h-35.032V353.01
	c0-10.401-8.463-18.863-18.863-18.863h-32.337c-10.401,0-18.863,8.463-18.863,18.863v14.595
	c-12.428,3.527-21.558,14.978-21.558,28.521v86.232c0,16.345,13.297,29.642,29.642,29.642h97.011
	c16.345,0,29.642-13.297,29.642-29.642v-86.232C334.147,379.781,320.85,366.484,304.505,366.484z M215.579,353.01
	c0-1.485,1.209-2.695,2.695-2.695h32.337c1.485,0,2.695,1.209,2.695,2.695v13.474h-37.726V353.01z M317.979,482.358
	c0,7.43-6.044,13.474-13.474,13.474h-97.011c-7.43,0-13.474-6.044-13.474-13.474v-86.232c0-7.43,6.044-13.474,13.474-13.474h97.011
	c7.43,0,13.474,6.044,13.474,13.474V482.358z"/>
<g>
</g>
<g>
</g>
<g>
</g>
<g>
</g>
<g>
</g>
<g>
</g>
<g>
</g>
<g>
</g>
<g>
</g>
<g>
</g>
<g>
</g>
<g>
</g>
<g>
</g>
<g>
</g>
<g>
</g>
</svg>
